<svg height="260" viewBox="0 0 105.83334 68.791664" width="400" xmlns="http://www.w3.org/2000/svg" xmlns:xlink="http://www.w3.org/1999/xlink"><clipPath id="a"><path d="m0 595.28h841.89v-595.28h-841.89z"/></clipPath><g clip-path="url(#a)" stroke-width=".54795" transform="matrix(.64381341 0 0 -.64381341 -254.29709 168.37754)"><g stroke-width=".756037" transform="matrix(.72476684 0 0 .72476684 172.49168 -8.926993)"><path d="m0 0c0-41.02-33.25-74.264-74.263-74.264-41.005 0-74.25 33.244-74.25 74.264 0 41.006 33.245 74.25 74.25 74.25 41.013 0 74.263-33.244 74.263-74.25" fill="#ec6a5a" transform="matrix(.41948171 0 0 .41948171 451.77341 339.57108)"/><path d="m31.59375-183.14648 115.27734 115.263668v-91.580078l-26.60742-23.50781v48.58398l-48.773436-48.75976zm-22.7109375.15234v91.552734l26.5976565 23.726562v-48.777346l48.779297 48.777346h39.882814z" fill="#fff" transform="matrix(.31461129089 0 0 -.31461129089 396.12268617713 300.10817216332)"/><g fill="#5c5b5c"><path d="m0 0c1.71-2.467 4.194-3.701 7.452-3.701 3.256 0 5.756 1.234 7.501 3.701 1.48 2.105 2.22 4.886 2.22 8.34 0 3.422-.74 6.201-2.22 8.341-1.745 2.466-4.245 3.701-7.501 3.701-3.291 0-5.774-1.235-7.452-3.701-1.48-2.14-2.221-4.919-2.221-8.341 0-3.454.741-6.235 2.221-8.34m-3.8 31.041h1.579v-15.644c1.777 4.245 5 6.366 9.673 6.366 3.75 0 6.629-1.349 8.635-4.046 1.777-2.369 2.665-5.495 2.665-9.377 0-3.915-.888-7.057-2.665-9.425-1.974-2.633-4.853-3.948-8.635-3.948-4.475 0-7.699 2.023-9.673 6.07v-5.429h-1.579z" transform="matrix(.41948171 0 0 .41948171 405.6761 232.21447)"/><path d="m228.81055 173.82227c-.92267 0-1.38477 1.03241-1.38477 3.09375 0 2.10533.4621 3.15625 1.38477 3.15625.96266 0 1.44726-1.05092 1.44726-3.15625 0-2.06134-.4846-3.09375-1.44726-3.09375zm-112.8418.52734v47.30664h2.16797v-43.49219l29.74414 43.49219h2.16992v-47.30664h-2.16992v43.55859l-29.67578-43.55859zm-90.669922.0644v47.24414h2.105469v-7.23828c2.632 5.396 6.931771 8.0918 12.898437 8.0918 5.042667 0 8.879719-1.75301 11.511719-5.26367 2.369333-3.15734 3.554688-7.34641 3.554688-12.56641 0-5.176-1.185355-9.34329-3.554688-12.50195-2.674666-3.596-6.511719-5.39453-11.511719-5.39453-6.230666 0-10.529104 2.82828-12.898437 8.48828v-20.85938zm37.898438 12.3711v22.63281c0 8.16 3.90489 12.23828 11.71289 12.23828 5.482667 0 9.320339-2.10379 11.513672-6.31445v5.26172c0 1.58-.06465 2.7634-.195312 3.55273-.088.65867-.231735 1.26121-.427735 1.81055-.198666.548-.406333 1.0418-.625 1.48047-1.974666 3.816-5.485297 5.72461-10.529297 5.72461-2.808-.00001-5.109536-.63621-6.908203-1.90821-2.017333-1.36-3.092609-3.42093-3.224609-6.18359h-1.775391c.04267 3.2 1.182589 5.67759 3.419922 7.43359 2.017333 1.62267 4.69463 2.43555 8.029297 2.43555 2.850667 0 5.306474-.48193 7.369141-1.44727 3.376-1.668 5.481119-4.32155 6.314453-7.96289.22-.87733.372937-1.68826.460937-2.43359.088-.74667.153266-1.46921.197266-2.17188v-34.14843h-2.105469v18.29101c0 1.35867-.03099 2.53287-.09766 3.51953-.06667.988-.141136 1.78768-.230469 2.40235-1.052 5.83466-4.80262 8.75195-11.251953 8.75195-3.553333 0-6.07574-.9876-7.566406-2.96094-1.316-1.71066-1.972656-4.38601-1.972656-8.02734v-21.97656zm110.607424 0c-5.044 0-8.88425 1.77479-11.51758 5.32812-2.36667 3.15867-3.55078 7.34836-3.55078 12.56836 0 5.176 1.18411 9.36641 3.55078 12.56641 2.72133 3.51066 6.55891 5.26367 11.51758 5.26367 6.404 0 10.7012-2.73928 12.89453-8.22461v7.37109h2.04297v-34.15039h-2.04297v7.83008c-2.23733-5.70133-6.53453-8.55273-12.89453-8.55273zm79.15234 0c-5.04667 0-8.88229 1.77479-11.51562 5.32812-2.36934 3.15867-3.55274 7.34836-3.55274 12.56836 0 5.176 1.1834 9.36641 3.55274 12.56641 2.71866 3.51066 6.55695 5.26367 11.51562 5.26367 6.404 0 10.70049-2.73928 12.89649-8.22461v7.37109h2.03906v-34.15039h-2.03906v7.83008c-2.23734-5.70133-6.53782-8.55273-12.89649-8.55273zm37.70117 0c-5.00266 0-8.81722 1.79853-11.44922 5.39453-2.368 3.15866-3.55468 7.32595-3.55468 12.50195 0 5.044 1.16294 9.19155 3.48828 12.43555 2.632 3.59866 6.40369 5.39453 11.31836 5.39453 3.72666 0 6.81939-1.02913 9.27539-3.0918 1.71066-1.53466 2.94021-3.53095 3.68555-5.98828l-1.77735-1.05078c-.65733 2.63067-1.98385 4.68168-3.97851 6.15234-1.99734 1.47067-4.33315 2.20313-7.00782 2.20313-4.34266 0-7.65616-1.64622-9.9375-4.93555-1.97333-2.80667-2.95703-6.51381-2.95703-11.11914 0-4.56267.9837-8.26776 2.95703-11.12109 2.24-3.288 5.5495-4.93555 9.9375-4.93555 2.84934 0 5.263.79109 7.23633 2.37109 1.53467 1.272 2.58887 2.73959 3.1582 4.40625l1.77735-1.18164c-1.92934-4.95733-5.98654-7.43554-12.17188-7.43554zm34.41016 0c-5 0-8.81393 1.79853-11.44727 5.39453-2.36933 3.15866-3.55468 7.32595-3.55468 12.50195s1.18535 9.36641 3.55468 12.56641c2.63334 3.51066 6.44727 5.26367 11.44727 5.26367 4.95867 0 8.79624-1.75301 11.51758-5.26367 2.36666-3.2 3.55078-7.39041 3.55078-12.56641s-1.18412-9.34329-3.55078-12.50195c-2.67734-3.596-6.51758-5.39453-11.51758-5.39453zm35.53125 0c-4.86933 0-8.42087 2.10574-10.6582 6.3164v-5.59375h-2.10547v34.14844h2.10547v-18.42187c0-1.272.0329-2.40201.0996-3.38868.0653-.98666.14051-1.81008.22851-2.46875.964-5.78933 4.36589-8.68359 10.19922-8.68359 3.948 0 6.53629 1.46954 7.76563 4.4082.65599 1.536.98632 4.21135.98632 8.02735v20.52734h2.03907v-18.42187c0-4.38667.63487-7.74303 1.9082-10.06836 1.66667-2.98134 4.53976-4.47266 8.62109-4.47266 3.948 0 6.53239 1.46954 7.76172 4.4082.65867 1.536.98633 4.21135.98633 8.02735v20.52734h2.10742v-22.63281c0-8.15867-3.59901-12.23828-10.79101-12.23828-5.04534 0-8.75248 2.32465-11.11914 6.97265-1.22934-4.648-4.6081-6.97265-10.13477-6.97265zm-166.46484.72265 12.69726 34.14844h2.37109l13.15821-34.14844h-2.17188l-12.17187 31.71485-11.71094-31.71485zm33.6875 0v34.14844h2.03711v-34.14839zm-187.519536 1.11724c4.341334 0 7.673334 1.64755 10 4.93555 1.973334 2.85333 2.960938 6.55842 2.960938 11.12109 0 4.60533-.987604 8.31443-2.960938 11.12109-2.326666 3.28934-5.658666 4.9336-10 4.9336-4.343999 0-7.6575-1.64426-9.9375-4.9336-1.973333-2.80666-2.960937-6.51576-2.960937-11.12109 0-4.56267.987604-8.26776 2.960937-11.12109 2.237334-3.288 5.549501-4.93555 9.9375-4.93555zm133.501956 0c4.38533 0 7.69626 1.64755 9.93359 4.93555 1.97467 2.85333 2.96094 6.55842 2.96094 11.12109 0 4.60533-.98627 8.31443-2.96094 11.12109-2.23733 3.28934-5.54826 4.9336-9.93359 4.9336-4.388 0-7.72134-1.64426-10-4.9336-1.97334-2.80666-2.96289-6.51576-2.96289-11.12109 0-4.60667 1.00867-8.31176 3.02734-11.12109 2.23733-3.288 5.54755-4.93555 9.93555-4.93555zm79.15234 0c4.38533 0 7.69821 1.64755 9.93555 4.93555 1.97466 2.85333 2.96094 6.55842 2.96094 11.12109 0 4.60533-.98628 8.31443-2.96094 11.12109-2.23734 3.28934-5.55022 4.9336-9.93555 4.9336-4.388 0-7.72062-1.64426-10.00195-4.9336-1.97334-2.80666-2.96094-6.51576-2.96094-11.12109 0-4.60667 1.00672-8.31176 3.02539-11.12109 2.23733-3.288 5.5495-4.93555 9.9375-4.93555zm72.11133 0c4.344 0 7.67857 1.64755 10.00391 4.93555 1.97466 2.85333 2.96093 6.55842 2.96093 11.12109 0 4.60533-.98627 8.31443-2.96093 11.12109-2.32534 3.28934-5.65991 4.9336-10.00391 4.9336-4.34133 0-7.65226-1.64426-9.93359-4.9336-1.97334-2.80666-2.96094-6.51576-2.96094-11.12109 0-4.56267.9876-8.26776 2.96094-11.12109 2.23733-3.288 5.54826-4.93555 9.93359-4.93555z" transform="matrix(.31461129089 0 0 -.31461129089 396.12268468801 300.10817623271)"/><path d="m0 0c-1.547-.724-3.389-1.086-5.527-1.086-2.501 0-4.508.609-6.021 1.826-1.678 1.317-2.534 3.176-2.566 5.576h1.332c.099-2.072.905-3.618 2.418-4.638 1.349-.954 3.076-1.431 5.182-1.431 3.783 0 6.415 1.431 7.896 4.293.164.329.32.699.469 1.11.147.412.255.864.321 1.358.098.592.147 1.48.147 2.665v3.947c-1.645-3.158-4.524-4.737-8.636-4.737-5.856 0-8.784 3.059-8.784 9.179v16.975h1.58v-16.482c0-2.731.493-4.738 1.48-6.021 1.118-1.48 3.01-2.221 5.675-2.221 4.837 0 7.649 2.188 8.438 6.564.067.461.123 1.061.173 1.802.05.74.074 1.62.074 2.639v13.719h1.579v-25.611c-.033-.527-.082-1.069-.148-1.629-.066-.559-.181-1.167-.346-1.825-.625-2.731-2.204-4.721-4.736-5.972" transform="matrix(.41948171 0 0 .41948171 421.78127 226.6461)"/><path d="m0 0h1.678l22.256-32.669v32.669h1.628v-35.481h-1.628l-22.307 32.619v-32.619h-1.627z" transform="matrix(.41948171 0 0 .41948171 432.6075 245.25607)"/><path d="m0 0c1.709-2.467 4.209-3.701 7.5-3.701 3.289 0 5.773 1.234 7.451 3.701 1.481 2.105 2.221 4.886 2.221 8.34 0 3.422-.74 6.201-2.221 8.341-1.678 2.466-4.162 3.701-7.451 3.701-3.291 0-5.773-1.235-7.451-3.701-1.514-2.107-2.27-4.886-2.27-8.341 0-3.454.741-6.235 2.221-8.34m7.5-5.033c-3.719 0-6.596 1.315-8.637 3.948-1.775 2.4-2.664 5.543-2.664 9.425 0 3.915.889 7.057 2.664 9.426 1.975 2.665 4.854 3.997 8.637 3.997 4.77 0 7.994-2.139 9.672-6.415v5.873h1.531v-25.613h-1.531v5.528c-1.645-4.114-4.869-6.169-9.672-6.169" transform="matrix(.41948171 0 0 .41948171 447.65725 232.21447)"/><path d="m0 0h1.629l8.783-23.786 9.129 23.786h1.629l-9.869-25.612h-1.778z" transform="matrix(.41948171 0 0 .41948171 457.19962 241.11616)"/><path d="m467.79794 241.11633h.64139v-10.74377h-.64139zm.31084 4.30514c.30286 0 .45556-.32426.45556-.97278 0-.66236-.1527-.99333-.45556-.99333-.29028 0-.43542.33097-.43542.99333 0 .64852.14514.97278.43542.97278"/><path d="m0 0c1.711-2.467 4.211-3.701 7.502-3.701 3.289 0 5.773 1.234 7.451 3.701 1.481 2.105 2.221 4.886 2.221 8.34 0 3.422-.74 6.201-2.221 8.341-1.678 2.466-4.162 3.701-7.451 3.701-3.291 0-5.775-1.235-7.453-3.701-1.514-2.107-2.27-4.886-2.27-8.341 0-3.454.741-6.235 2.221-8.34m7.502-5.033c-3.719 0-6.598 1.315-8.637 3.948-1.777 2.4-2.664 5.543-2.664 9.425 0 3.915.887 7.057 2.664 9.426 1.975 2.665 4.852 3.997 8.637 3.997 4.769 0 7.994-2.139 9.672-6.415v5.873h1.529v-25.613h-1.529v5.528c-1.647-4.114-4.869-6.169-9.672-6.169" transform="matrix(.41948171 0 0 .41948171 472.55907 232.21447)"/><path d="m0 0c-1.842-1.547-4.162-2.319-6.957-2.319-3.686 0-6.514 1.348-8.488 4.047-1.744 2.433-2.616 5.543-2.616 9.326 0 3.882.889 7.008 2.665 9.377 1.974 2.697 4.835 4.046 8.587 4.046 4.639 0 7.682-1.859 9.129-5.577l-1.332-.887c-.427 1.25-1.218 2.351-2.369 3.305-1.48 1.185-3.291 1.778-5.428 1.778-3.291 0-5.773-1.235-7.453-3.701-1.48-2.14-2.218-4.919-2.218-8.341 0-3.454.738-6.235 2.218-8.34 1.711-2.467 4.196-3.701 7.453-3.701 2.006 0 3.758.55 5.256 1.653 1.496 1.103 2.492 2.641 2.985 4.614l1.332-.789c-.559-1.843-1.481-3.34-2.764-4.491" transform="matrix(.41948171 0 0 .41948171 490.42307 231.07603)"/><path d="m0 0c1.711-2.467 4.195-3.701 7.451-3.701 3.258 0 5.758 1.234 7.502 3.701 1.481 2.105 2.221 4.886 2.221 8.34 0 3.422-.74 6.201-2.221 8.341-1.744 2.466-4.244 3.701-7.502 3.701-3.289 0-5.773-1.235-7.451-3.701-1.48-2.14-2.221-4.919-2.221-8.341 0-3.454.741-6.235 2.221-8.34m-1.135 17.717c1.975 2.697 4.836 4.046 8.586 4.046s6.629-1.349 8.637-4.046c1.775-2.369 2.664-5.495 2.664-9.377s-.889-7.025-2.664-9.425c-2.041-2.633-4.918-3.948-8.637-3.948-3.75 0-6.611 1.315-8.586 3.948-1.777 2.4-2.666 5.543-2.666 9.425s.889 7.008 2.666 9.377" transform="matrix(.41948171 0 0 .41948171 495.26758 232.21447)"/><path d="m0 0h1.58v-4.195c1.678 3.158 4.342 4.737 7.994 4.737 4.145 0 6.678-1.744 7.6-5.23 1.775 3.486 4.556 5.23 8.34 5.23 5.394 0 8.093-3.06 8.093-9.179v-16.975h-1.58v15.396c0 2.862-.246 4.869-.74 6.021-.922 2.204-2.861 3.306-5.822 3.306-3.061 0-5.215-1.119-6.465-3.355-.955-1.744-1.432-4.261-1.432-7.551v-13.817h-1.529v15.396c0 2.862-.248 4.869-.74 6.021-.922 2.204-2.863 3.306-5.824 3.306-4.375 0-6.926-2.171-7.649-6.513-.066-.494-.123-1.111-.172-1.851-.05-.74-.074-1.588-.074-2.542v-13.817h-1.58z" transform="matrix(.41948171 0 0 .41948171 505.55554 241.11616)"/><path d="m0 0h-3.659v1.964h9.701v-1.964h-3.697v-10.882h-2.345z" transform="matrix(.41948171 0 0 .41948171 524.49778 289.94278)"/><path d="m0 0c-.076 1.658-.172 3.659-.152 5.394h-.058c-.419-1.564-.952-3.297-1.524-4.917l-1.868-5.566h-1.81l-1.716 5.489c-.495 1.639-.953 3.392-1.296 4.994h-.038c-.057-1.678-.134-3.717-.228-5.47l-.287-5.165h-2.191l.857 12.845h3.088l1.677-5.165c.457-1.505.858-3.03 1.182-4.46h.056c.344 1.392.783 2.974 1.278 4.479l1.772 5.146h3.049l.744-12.845h-2.287z" transform="matrix(.41948171 0 0 .41948171 532.22048 287.57661)"/><path d="m7.1328125 14.164062c-2.8931666-.0092-5.8037084 1.078558-7.984375 3.337891-2.1519999 2.189333-3.2226562 4.868203-3.2226563 7.908203 0 3.034667 1.0706564 5.701292 3.2226563 7.890625 2.1399999 2.242667 4.7813282 3.361328 7.8613281 3.361328 3.0386664 0 5.7313024-1.118265 7.9179684-3.322265 2.214667-2.206667 3.332032-4.880355 3.332032-7.929688 0-3.164-1.090094-5.855099-3.246094-8.009765-2.112-2.122667-4.987693-3.227162-7.8808595-3.236329zm-288.8183625 14.269532v115.203126h16.98828v-91.98047l55.85743 91.98047h22.13476v-115.203126h-16.82812v89.474606l-53.9336-89.474606zm149.61914 18.490234c-9.69866 0-18.82894 2.164505-27.09961 6.451172l-1.60156.806641 6.45508 15.205078 1.92383-1.310547c5.18533-3.446667 11.49238-5.189453 18.76172-5.189453 10.22 0 14.98242 5.031224 14.98242 15.83789v8.580079c-4.60933-1.496-10.40564-2.232422-17.54297-2.232422-9.268 0-17.28007 2.568437-23.80273 7.648437-7.36 5.641333-11.10547 13.297717-11.10547 22.761717 0 9.87067 3.26188 17.51528 9.69922 22.72461 5.71866 4.628 13.4454 6.9707 22.9414 6.9707 8.092 0 14.9172-2.15487 20.39453-6.4082.404 1.65467 1.0462 3.00876 1.88086 4.10742l.58594.75977h18.84375l-.869141-2.56836c-1.229333-3.56933-1.919135-5.58833-1.980468-5.875-.338667-2.19467-.509771-6.78564-.509771-13.68164v-42.099611c0-21.541332-10.74769-32.488281-31.95703-32.488281zm200.667972 0c-9.706666 0-18.822333 2.164505-27.125 6.451172l-1.59375.806641 6.455079 15.205078 1.943359-1.310547c5.162667-3.446667 11.497005-5.189453 18.763672-5.189453 10.204 0 14.955078 5.031224 14.955078 15.83789v8.589844c-4.605333-1.506666-10.387964-2.242187-17.529297-2.242187-9.290666 0-17.287354 2.568437-23.804687 7.648437-7.353333 5.641333-11.109375 13.297717-11.109375 22.761717 0 9.87067 3.250318 17.51528 9.708984 22.72461 5.704 4.628 13.446026 6.9707 22.943359 6.9707 8.084 0 14.895094-2.15487 20.371094-6.4082.425333 1.65467 1.076542 3.00876 1.921875 4.10742l.554688.75977h18.869139l-.89648-2.56836c-1.244-3.596-1.91213-5.60167-1.9668-5.875-.336-2.14267-.49023-6.76031-.49023-13.68164v-42.099611c0-21.541332-10.776041-32.488281-31.970708-32.488281zm-162.138671 1.382813 33.078125 95.330079h17.943359l33.0878906-95.330079h-19.4707036l-20.992187 64.060549-1.503906 5.40625-1.34375-5.48047-20.980469-63.986329zm91.3574215.185547v80.224612h-10.1796875v14.91992h39.746094v-14.91992h-11.035157v-80.224612zm-131.6113325 52.011722c6.20667 0 11.30516.77235 15.14649 2.29101v18.62696c-5.31067 5.40133-11.15091 8.15429-17.37891 8.15429-10.676 0-15.65625-4.15617-15.65625-13.07617 0-10.90667 5.67934-15.99609 17.88867-15.99609zm200.664067 0c6.222666 0 11.30562.77235 15.126953 2.29101v18.62696c-5.36 5.48799-11.064427 8.15429-17.371094 8.15429-10.685333 0-15.654297-4.15617-15.654297-13.07617 0-10.90667 5.673105-15.99609 17.898438-15.99609z" transform="matrix(.31461129089 0 0 -.31461129089 396.1226901879 300.10817271061)"/></g><path d="m0 0v51.585h-9.314v8.047h9.314v7.551c0 6.355 1.662 11.27 4.987 14.742 3.326 3.471 7.964 5.208 13.916 5.208 1.249 0 2.508-.102 3.776-.303 1.267-.202 2.673-.487 4.216-.854l-1.323-8.267c-.661.146-1.461.275-2.397.386-.937.11-1.92.165-2.948.165-3.162 0-5.512-.947-7.055-2.838-1.543-1.894-2.315-4.64-2.315-8.239v-7.551h10.802v-8.047h-10.802v-51.585z" fill="#ec6a5a" transform="matrix(.41948171 0 0 .41948171 436.81218 254.80708)"/><path d="m154.53711 27.8125c-7.936 0-14.12002 2.317313-18.55469 6.945312-4.43333 4.629334-6.65039 11.182917-6.65039 19.65625v10.066407h-12.41797v10.730469h12.41797v68.779292h14.47656v-68.779292h14.40235v-10.730469h-14.40235v-10.066407c0-4.798666 1.02861-8.460994 3.08594-10.986328 2.05733-2.521333 5.1922-3.783203 9.4082-3.783203 1.37067 0 2.68036.07208 3.92969.21875 1.248.148 2.31398.320959 3.19531.515625l1.76563-11.023437c-2.05733-.489334-3.93371-.869339-5.62305-1.138672-1.69066-.268-3.36787-.404297-5.0332-.404297zm18.7207 1.542969v114.634761h14.47657v-114.634761zm197.69336 15.947265v19.179688h-12.64062v10.728516h12.64062v48.279292c0 7.59334 1.7368 13.1648 5.2168 16.7168 3.47733 3.552 8.15649 5.32617 14.03515 5.32617 2.05734 0 4.1381-.28108 6.2461-.84375 2.10533-.564 3.69672-1.2853 4.77539-2.16797l-1.98438-9.91992c-.68533.244-1.54231.47593-2.57031.69727-1.02933.22-1.96097.33008-2.79297.33008-2.548 0-4.59272-.75735-6.13672-2.27735-1.54266-1.51866-2.31445-4.13866-2.31445-7.86133v-48.279292h15.06445v-10.728516h-15.06445v-19.179688zm-131.06055 17.708985c-9.50533 0-17.55067 3.737698-24.13867 11.207031-6.59066 7.472-9.88672 16.914792-9.88672 28.32813v3.23242c0 11.904 3.19847 21.50602 9.5918 28.80468 6.39333 7.3 15.29494 10.94922 26.71094 10.94922 6.564 0 12.1715-.94279 16.82617-2.82812 4.65333-1.88534 8.40281-4.19936 11.24414-6.94336l-5.6582-9.40625c-2.64667 2.44933-5.81829 4.37024-9.51563 5.76758-3.70133 1.396-7.99781 2.09375-12.89648 2.09375-7.24933 0-12.63997-2.48503-16.16797-7.45703-3.52667-4.972-5.29102-11.45084-5.29102-19.4375l.22071-.36719h50.85156v-7.64258c0-10.973333-2.65861-19.767526-7.97461-26.380859-5.31467-6.612-13.28668-9.919922-23.91602-9.919922zm78.02149 0c-9.50533 0-17.55067 3.737698-24.13867 11.207031-6.59067 7.472-9.88477 16.914792-9.88477 28.32813v3.23242c0 11.904 3.19651 21.50602 9.58985 28.80468 6.39333 7.3 15.29493 10.94922 26.71093 10.94922 6.564 0 12.17346-.94279 16.82813-2.82812 4.65333-1.88534 8.40085-4.19936 11.24219-6.94336l-5.65625-9.40625c-2.64667 2.44933-5.82025 4.37024-9.51758 5.76758-3.70134 1.396-7.99782 2.09375-12.89649 2.09375-7.24933 0-12.63801-2.48503-16.16601-7.45703-3.52667-4.972-5.29102-11.45084-5.29102-19.4375l.21875-.36719h50.85352v-7.64258c0-10.973333-2.65861-19.767526-7.97461-26.380859-5.31467-6.612-13.28864-9.919922-23.91797-9.919922zm-78.02149 11.390625c5.92667 0 10.30968 1.885583 13.15235 5.65625 2.84 3.773333 4.26367 8.550078 4.26367 14.330078v1.175781h-35.86133l-.14648-.367187c.73333-6.074667 2.7545-11.058459 6.0625-14.953125 3.30533-3.894667 7.48263-5.841797 12.52929-5.841797zm78.02149 0c5.92667 0 10.30968 1.885583 13.15234 5.65625 2.84 3.773333 4.26367 8.550078 4.26367 14.330078v1.175781h-35.86132l-.14649-.367187c.73334-6.074667 2.75646-11.058459 6.06446-14.953125 3.30533-3.894667 7.48067-5.841797 12.52734-5.841797z" fill="#ec6a5a" transform="matrix(.31461129089 0 0 -.31461129089 396.12269281509 300.10817250285)"/><path d="m0 0c-3.785 0-6.917-1.46-9.396-4.381-2.481-2.921-3.997-6.66-4.547-11.216l.109-.275h26.896v.882c0 4.335-1.067 7.917-3.197 10.747-2.132 2.828-5.42 4.243-9.865 4.243m1.708-53.349c-8.562 0-15.238 2.737-20.033 8.212-4.795 5.474-7.193 12.676-7.193 21.604v2.425c0 8.56 2.471 15.642 7.414 21.246 4.941 5.602 10.975 8.405 18.104 8.405 7.972 0 13.952-2.481 17.938-7.44 3.987-4.96 5.981-11.556 5.981-19.786v-5.732h-38.139l-.165-.275c0-5.99 1.323-10.849 3.968-14.578 2.646-3.729 6.688-5.593 12.125-5.593 3.674 0 6.897.523 9.673 1.57 2.773 1.048 5.152 2.489 7.137 4.326l4.243-7.054c-2.131-2.058-4.942-3.794-8.432-5.208-3.491-1.414-7.698-2.122-12.621-2.122" fill="#ec6a5a" transform="matrix(.41948171 0 0 .41948171 471.59472 276.70042)"/><path d="m0 0c-3.785 0-6.917-1.46-9.396-4.381-2.481-2.921-3.997-6.66-4.547-11.216l.109-.275h26.896v.882c0 4.335-1.067 7.917-3.197 10.747-2.132 2.828-5.42 4.243-9.865 4.243m1.708-53.349c-8.562 0-15.238 2.737-20.033 8.212-4.795 5.474-7.193 12.676-7.193 21.604v2.425c0 8.56 2.471 15.642 7.414 21.246 4.941 5.602 10.975 8.405 18.104 8.405 7.972 0 13.952-2.481 17.938-7.44 3.987-4.96 5.981-11.556 5.981-19.786v-5.732h-38.139l-.165-.275c0-5.99 1.323-10.849 3.968-14.578 2.646-3.729 6.688-5.593 12.125-5.593 3.674 0 6.897.523 9.673 1.57 2.773 1.048 5.152 2.489 7.137 4.326l4.243-7.054c-2.131-2.058-4.942-3.794-8.432-5.208-3.491-1.414-7.698-2.122-12.621-2.122" fill="#ec6a5a" transform="matrix(.41948171 0 0 .41948171 496.14136 276.70042)"/><path d="m0 0v-14.385h11.299v-8.047h-11.299v-36.209c0-2.792.579-4.757 1.736-5.896 1.158-1.14 2.692-1.709 4.603-1.709.624 0 1.322.083 2.094.248.771.166 1.414.34 1.928.523l1.489-7.439c-.809-.662-2.003-1.203-3.582-1.626-1.581-.422-3.142-.634-4.685-.634-4.409 0-7.918 1.331-10.526 3.995-2.61 2.664-3.913 6.843-3.913 12.538v36.209h-9.48v8.047h9.48v14.385z" fill="#ec6a5a" transform="matrix(.41948171 0 0 .41948171 517.38173 285.85569)"/></g></g></svg>